<svg id="svg" version="1.1" xmlns="http://www.w3.org/2000/svg" xmlns:xlink="http://www.w3.org/1999/xlink" width="400" height="400" viewBox="0, 0, 400,400"><g id="svgg"><path id="path0" d="M122.162 50.402 C 118.437 51.338,114.793 54.522,113.444 58.019 C 112.208 61.225,112.292 108.307,113.539 111.006 C 118.178 121.043,131.822 121.043,136.461 111.006 C 137.711 108.301,137.792 61.225,136.552 58.009 C 134.453 52.567,127.718 49.007,122.162 50.402 M278.412 50.402 C 274.687 51.338,271.043 54.522,269.694 58.019 C 268.458 61.225,268.542 108.307,269.789 111.006 C 274.428 121.043,288.072 121.043,292.711 111.006 C 293.961 108.301,294.042 61.225,292.802 58.009 C 290.703 52.567,283.968 49.007,278.412 50.402 M75.000 222.868 C 75.000 293.510,75.066 302.307,75.618 304.979 C 77.636 314.747,85.282 322.402,95.003 324.386 C 99.593 325.322,300.407 325.322,304.997 324.386 C 314.763 322.393,322.355 314.792,324.382 304.979 C 324.934 302.307,325.000 293.510,325.000 222.868 L 325.000 143.750 200.000 143.750 L 75.000 143.750 75.000 222.868 M241.313 188.095 C 245.988 189.483,250.000 195.056,250.000 200.160 C 249.999 204.543,248.706 206.847,243.891 211.048 C 225.355 227.220,214.448 251.762,212.867 280.859 C 212.365 290.090,212.031 291.973,210.477 294.319 C 206.051 301.000,196.795 301.894,191.092 296.191 C 187.999 293.097,187.692 291.933,187.719 283.398 C 187.793 260.223,194.766 235.633,206.630 216.714 C 207.925 214.649,208.984 212.861,208.984 212.742 C 208.984 212.623,199.185 212.475,187.207 212.415 L 165.430 212.305 163.487 211.349 C 153.271 206.322,154.238 191.422,164.999 188.054 C 167.593 187.242,238.569 187.279,241.313 188.095 " stroke="none" fill="#f7f7f6" fill-rule="evenodd"></path><path id="path1" d="M183.789 0.426 C 64.479 10.511,-19.437 121.434,3.550 238.672 C 31.065 378.999,193.820 445.939,312.366 365.686 C 443.150 277.147,423.740 77.816,278.286 15.698 C 249.745 3.509,214.568 -2.176,183.789 0.426 M130.017 51.188 C 135.658 53.674,137.239 57.109,137.428 67.285 L 137.571 75.000 203.125 75.000 L 268.679 75.000 268.822 67.285 C 269.048 55.087,272.585 50.234,281.250 50.234 C 289.915 50.234,293.452 55.087,293.678 67.285 L 293.821 75.000 298.546 75.000 C 309.405 75.000,317.904 79.916,322.203 88.685 C 325.274 94.950,325.024 84.013,324.909 207.065 L 324.805 317.383 323.758 320.248 C 320.882 328.121,314.859 334.020,307.227 336.438 L 304.492 337.305 199.805 337.305 L 95.117 337.305 92.252 336.258 C 84.493 333.424,78.674 327.551,76.064 319.922 L 75.195 317.383 75.091 207.119 C 74.976 84.197,74.746 94.462,77.747 88.693 C 82.950 78.693,90.150 75.016,104.555 75.006 L 112.429 75.000 112.568 67.285 C 112.695 60.251,112.786 59.398,113.599 57.617 C 116.481 51.304,123.788 48.443,130.017 51.188 " stroke="none" fill="#7bb3d3" fill-rule="evenodd"></path><path id="path2" d="M94.727 75.642 C 87.354 77.200,80.497 82.724,77.318 89.666 C 75.099 94.511,75.000 95.848,75.000 120.882 L 75.000 143.750 200.000 143.750 L 325.000 143.750 325.000 120.882 C 325.000 95.844,324.901 94.507,322.680 89.666 C 318.334 80.191,309.557 75.000,297.884 75.000 L 293.781 75.000 293.668 92.090 L 293.555 109.180 292.531 111.362 C 287.998 121.029,274.502 121.029,269.969 111.362 L 268.945 109.180 268.832 92.090 L 268.719 75.000 203.125 75.000 L 137.531 75.000 137.418 92.090 L 137.305 109.180 136.281 111.362 C 131.748 121.029,118.252 121.029,113.719 111.362 L 112.695 109.180 112.582 92.090 L 112.469 75.000 104.965 75.032 C 99.948 75.053,96.555 75.255,94.727 75.642 " stroke="none" fill="#cb5c5c" fill-rule="evenodd"></path><path id="path3" d="M165.657 188.120 C 156.389 190.612,153.352 201.857,160.121 208.619 C 163.906 212.400,162.881 212.256,187.748 212.491 L 209.286 212.695 206.776 216.797 C 195.311 235.539,189.254 255.814,187.862 280.115 C 187.076 293.837,190.738 299.766,200.000 299.766 C 208.455 299.766,211.963 294.943,212.526 282.543 C 213.879 252.717,224.015 229.286,243.329 211.336 C 246.279 208.595,248.055 206.609,248.705 205.326 C 252.070 198.686,247.915 190.052,240.417 188.099 C 237.063 187.225,168.913 187.245,165.657 188.120 " stroke="none" fill="#575a6f" fill-rule="evenodd"></path><path id="path4" d="M187.599 281.836 C 187.603 282.695,187.683 283.001,187.776 282.515 C 187.870 282.029,187.866 281.326,187.768 280.952 C 187.671 280.579,187.594 280.977,187.599 281.836 M75.147 310.547 C 75.402 323.980,80.783 332.069,92.252 336.258 L 95.117 337.305 199.805 337.305 L 304.492 337.305 307.227 336.438 C 318.630 332.825,324.640 324.004,324.867 310.547 C 324.981 303.787,324.976 303.737,324.393 306.050 C 322.194 314.778,314.542 322.352,305.859 324.392 C 302.002 325.298,97.998 325.298,94.141 324.392 C 85.458 322.352,77.806 314.778,75.607 306.050 C 75.025 303.742,75.019 303.801,75.147 310.547 " stroke="none" fill="#6494b4" fill-rule="evenodd"></path></g></svg>